<svg width="94" height="120" viewBox="0 0 94 120" fill="none" xmlns="http://www.w3.org/2000/svg">
<circle cx="47" cy="73" r="47" fill="#2B276F"/>
<path d="M22.7615 87V75.84L46.3415 53.79C48.0215 52.23 49.2515 50.85 50.0315 49.65C50.8715 48.45 51.4115 47.37 51.6515 46.41C51.9515 45.39 52.1015 44.46 52.1015 43.62C52.1015 41.58 51.4115 39.99 50.0315 38.85C48.7115 37.71 46.7015 37.14 44.0015 37.14C41.7215 37.14 39.5915 37.65 37.6115 38.67C35.6315 39.69 34.0115 41.22 32.7515 43.26L19.5215 35.88C21.8615 31.92 25.2515 28.74 29.6915 26.34C34.1315 23.94 39.4415 22.74 45.6215 22.74C50.4815 22.74 54.7415 23.52 58.4015 25.08C62.0615 26.64 64.9115 28.86 66.9515 31.74C69.0515 34.62 70.1015 38.01 70.1015 41.91C70.1015 43.95 69.8315 45.99 69.2915 48.03C68.7515 50.01 67.7015 52.14 66.1415 54.42C64.6415 56.64 62.3915 59.13 59.3915 61.89L40.6715 79.17L37.7015 72.87H71.8115V87H22.7615Z" fill="white"/>
</svg>
