<svg width="94" height="120" viewBox="0 0 94 120" fill="none" xmlns="http://www.w3.org/2000/svg">
<circle cx="47" cy="73" r="47" fill="#2B276F"/>
<path d="M44.0057 88.26C39.6257 88.26 35.2457 87.72 30.8657 86.64C26.5457 85.56 22.7657 84.03 19.5257 82.05L26.0057 68.64C28.5257 70.32 31.3157 71.61 34.3757 72.51C37.4957 73.41 40.5257 73.86 43.4657 73.86C46.5257 73.86 48.9557 73.29 50.7557 72.15C52.5557 71.01 53.4557 69.39 53.4557 67.29C53.4557 65.43 52.7057 63.96 51.2057 62.88C49.7057 61.74 47.2457 61.17 43.8257 61.17H36.3557V49.92L53.2757 31.65L54.9857 37.77H22.7657V24H68.3057V35.16L51.3857 53.43L42.6557 48.48H47.5157C55.3757 48.48 61.3157 50.25 65.3357 53.79C69.4157 57.27 71.4557 61.77 71.4557 67.29C71.4557 70.89 70.4657 74.28 68.4857 77.46C66.5657 80.64 63.5957 83.25 59.5757 85.29C55.5557 87.27 50.3657 88.26 44.0057 88.26Z" fill="white"/>
</svg>
