<svg width="190" height="90" viewBox="0 0 190 90" fill="none" xmlns="http://www.w3.org/2000/svg">
<path d="M30.2002 56.1V34H37.6002C39.8002 34 41.6002 34.2 42.9002 34.8C44.3002 35.3 45.4002 36.1 46.4002 37.3C48.0002 39.2 48.7002 41.6 48.7002 44.7C48.7002 48.4 47.7002 51.3 45.8002 53.3C43.8002 55.3 41.1002 56.4 37.6002 56.4L30.2002 56.1ZM33.4002 53.8H37.4002C40.3002 53.8 42.3002 53 43.5002 51.5C44.8002 49.9 45.5002 47.6 45.5002 44.9C45.5002 42.3 44.9002 40.2 43.6002 38.8C42.8002 37.9 41.9002 37.3 40.9002 36.9C39.8002 36.6 38.2002 36.4 36.1002 36.4H33.5002L33.4002 53.8Z" fill="white"/>
<path d="M53.2998 56.1V39.8H56.1998V42.9C57.3998 40.6 59.0998 39.5 61.2998 39.5C61.5998 39.5 61.8998 39.5 62.2998 39.6V42.3C61.7998 42.1 61.2998 42.1 60.8998 42.1C58.9998 42.1 57.4998 43.2 56.1998 45.4V56.2L53.2998 56.1Z" fill="white"/>
<path d="M77.8 55.5999C75.8 56.1999 74.1 56.4999 72.7 56.4999C70.3 56.4999 68.4 55.6999 66.8 54.0999C65.3 52.4999 64.5 50.3999 64.5 47.8999C64.5 45.3999 65.2 43.3999 66.5 41.7999C67.9 40.1999 69.6 39.3999 71.6 39.3999C73.6 39.3999 75.1 40.0999 76.2 41.4999C77.3 42.8999 77.8 44.8999 77.8 47.4999V48.3999H67.6C68 52.2999 69.9 54.1999 73.3 54.1999C74.5 54.1999 76 53.8999 77.8 53.1999V55.5999ZM67.7 46.2999H74.9C74.9 43.2999 73.8 41.7999 71.5 41.7999C69.2 41.6999 68 43.1999 67.7 46.2999Z" fill="white"/>
<path d="M91.4001 54.1C89.6001 55.7 87.9001 56.5 86.3001 56.5C84.9001 56.5 83.8001 56.1 83.0001 55.2C82.1001 54.4 81.6001 53.3 81.6001 52C81.6001 50.2 82.4001 48.9 83.8001 47.9C85.3001 46.9 87.4001 46.5 90.3001 46.5H91.0001V44.5C91.0001 42.6 90.0001 41.7 88.1001 41.7C86.5001 41.7 84.9001 42.2 83.0001 43.1V40.7C85.0001 39.9 86.9001 39.5 88.6001 39.5C90.4001 39.5 91.7001 39.9 92.6001 40.7C93.5001 41.5 93.9001 42.8 93.9001 44.5V51.9C93.9001 53.6 94.4001 54.4 95.5001 54.4C95.6001 54.4 95.8001 54.4 96.1001 54.3L96.3001 55.9C95.6001 56.2 94.9001 56.4 94.1001 56.4C92.7001 56.5 91.8001 55.7 91.4001 54.1ZM90.9001 52.5V48.3H89.9001C88.3001 48.3 87.0001 48.6 86.0001 49.2C85.0001 49.8 84.5001 50.6 84.5001 51.6C84.5001 52.3 84.7001 52.9 85.3001 53.4C85.8001 53.9 86.4001 54.2 87.1001 54.2C88.3001 54.1 89.6001 53.6 90.9001 52.5Z" fill="white"/>
<path d="M99.8999 56.1V39.8H102.8V42.9C104.2 40.6 106.1 39.5 108.3 39.5C110.5 39.5 112 40.7 112.8 42.9C114.2 40.6 116 39.5 118.3 39.5C119.7 39.5 120.8 39.9 121.6 40.8C122.4 41.7 122.8 42.8 122.8 44.3V56.2H119.8V44.7C119.8 42.8 119 41.9 117.6 41.9C116.1 41.9 114.5 43 112.8 45.2V56.1H109.8V44.7C109.8 42.8 109 41.9 107.6 41.9C106.2 41.9 104.5 43 102.8 45.2V56.1H99.8999Z" fill="white"/>
<path d="M21.5 56.0999V42.5999H24.4V56.1999L21.5 56.0999ZM21.5 40.0999V37.5999H24.4V40.0999H21.5Z" fill="white"/>
<path fill-rule="evenodd" clip-rule="evenodd" d="M134 27.7V62.2999H168.5V27.7H134Z" fill="white"/>
<path fill-rule="evenodd" clip-rule="evenodd" d="M168.3 61.9999H134.3V28.0999H168.3V61.9999Z" fill="white"/>
<path fill-rule="evenodd" clip-rule="evenodd" d="M159.9 55.8999C159.9 55.8999 159.8 55.8999 159.7 55.8999C159.5 55.8999 159.3 55.9999 159.2 56.0999C159.1 56.1999 159 56.3999 159 56.5999V57.9999H158.4V56.1999C158.4 55.8999 158.4 55.5999 158.4 55.3999H158.9V55.8999C159 55.6999 159.1 55.5999 159.2 55.4999C159.3 55.3999 159.5 55.2999 159.6 55.2999C159.7 55.2999 159.7 55.2999 159.8 55.2999V55.8999H159.9ZM158 56.5999C158 56.6999 158 56.7999 158 56.7999H156.2C156.2 57.0999 156.3 57.2999 156.4 57.3999C156.6 57.4999 156.8 57.5999 157 57.5999C157.3 57.5999 157.5 57.5999 157.7 57.4999L157.8 57.8999C157.6 57.9999 157.3 58.0999 156.9 58.0999C156.5 58.0999 156.1 57.9999 155.9 57.6999C155.7 57.4999 155.5 57.0999 155.5 56.6999C155.5 56.2999 155.6 55.9999 155.8 55.6999C156 55.3999 156.3 55.2999 156.7 55.2999C157.1 55.2999 157.4 55.4999 157.6 55.6999C158 55.9999 158 56.2999 158 56.5999ZM157.5 56.3999C157.5 56.1999 157.5 56.0999 157.4 55.9999C157.3 55.7999 157.2 55.7999 156.9 55.7999C156.7 55.7999 156.5 55.8999 156.4 55.9999C156.3 56.0999 156.2 56.2999 156.2 56.3999H157.5ZM155.1 54.1999V58.0999H154.5V54.1999H155.1ZM153.9 54.1999V58.0999H153.3V54.1999H153.9ZM152.8 56.5999C152.8 56.6999 152.8 56.7999 152.8 56.7999H151C151 57.0999 151.1 57.2999 151.2 57.3999C151.3 57.4999 151.5 57.5999 151.7 57.5999C152 57.5999 152.2 57.5999 152.4 57.4999L152.5 57.8999C152.3 57.9999 151.9 58.0999 151.6 58.0999C151.2 58.0999 150.9 57.9999 150.7 57.6999C150.5 57.4999 150.3 57.0999 150.3 56.6999C150.3 56.2999 150.4 55.9999 150.6 55.6999C150.8 55.3999 151.2 55.2999 151.5 55.2999C151.9 55.2999 152.2 55.4999 152.4 55.6999C152.7 55.9999 152.8 56.2999 152.8 56.5999ZM152.2 56.3999C152.2 56.1999 152.2 56.0999 152.1 55.9999C152 55.7999 151.9 55.7999 151.6 55.7999C151.4 55.7999 151.3 55.8999 151.2 55.9999C151.1 56.0999 151 56.2999 151 56.3999H152.2ZM150.1 57.2999C150.1 57.4999 150 57.6999 149.8 57.8999C149.6 58.0999 149.4 58.0999 149 58.0999C148.7 58.0999 148.4 58.0999 148.2 57.8999L148.3 57.4999C148.5 57.5999 148.7 57.6999 148.9 57.6999C149.2 57.6999 149.3 57.5999 149.3 57.3999C149.3 57.2999 149.3 57.1999 149.2 57.1999C149.1 57.0999 149 57.0999 148.8 56.9999C148.3 56.7999 148.1 56.5999 148.1 56.1999C148.1 55.9999 148.2 55.7999 148.3 55.5999C148.4 55.3999 148.7 55.3999 149 55.3999C149.3 55.3999 149.5 55.3999 149.7 55.5999L149.6 55.9999C149.4 55.8999 149.2 55.7999 149.1 55.7999C149 55.7999 148.9 55.7999 148.8 55.8999C148.7 55.8999 148.7 55.9999 148.7 56.0999C148.7 56.1999 148.7 56.2999 148.8 56.2999C148.8 56.2999 149 56.3999 149.2 56.4999C149.9 56.6999 150.1 56.8999 150.1 57.2999ZM148 56.5999C148 56.6999 148 56.7999 148 56.7999H146.2C146.2 57.0999 146.3 57.2999 146.4 57.3999C146.6 57.4999 146.7 57.5999 147 57.5999C147.3 57.5999 147.5 57.5999 147.7 57.4999L147.8 57.8999C147.6 57.9999 147.2 58.0999 146.9 58.0999C146.5 58.0999 146.2 57.9999 145.9 57.6999C145.7 57.4999 145.5 57.0999 145.5 56.6999C145.5 56.2999 145.6 55.9999 145.8 55.6999C146 55.3999 146.3 55.2999 146.7 55.2999C147.1 55.2999 147.4 55.4999 147.6 55.6999C147.9 55.9999 148 56.2999 148 56.5999ZM147.4 56.3999C147.4 56.1999 147.4 56.0999 147.3 55.9999C147.2 55.7999 147.1 55.7999 146.8 55.7999C146.6 55.7999 146.4 55.8999 146.3 55.9999C146.2 56.0999 146.1 56.2999 146.1 56.3999H147.4ZM145.4 57.9999H144.8C144.8 57.8999 144.7 57.5999 144.6 57.0999C144.6 56.8999 144.5 56.6999 144.4 56.5999C144.3 56.4999 144.2 56.3999 144 56.3999H143.6V57.9999H143V54.3999C143.3 54.3999 143.6 54.2999 144 54.2999C144.5 54.2999 144.9 54.3999 145.1 54.5999C145.3 54.7999 145.4 54.9999 145.4 55.2999C145.4 55.4999 145.3 55.6999 145.2 55.8999C145.1 56.0999 144.9 56.0999 144.7 56.1999C144.9 56.2999 145.1 56.4999 145.2 56.8999C145.3 57.1999 145.3 57.3999 145.4 57.4999C145.4 57.8999 145.4 57.9999 145.4 57.9999ZM144.7 55.3999C144.7 54.9999 144.5 54.7999 143.9 54.7999C143.7 54.7999 143.6 54.7999 143.5 54.7999V55.9999H143.9C144.1 55.9999 144.3 55.8999 144.5 55.7999C144.6 55.7999 144.7 55.5999 144.7 55.3999ZM161 52.2999H160.4V50.7999C160.4 50.2999 160.2 50.0999 159.9 50.0999C159.7 50.0999 159.6 50.0999 159.5 50.2999C159.4 50.3999 159.3 50.5999 159.3 50.6999V52.2999H158.7V50.6999C158.7 50.4999 158.7 50.2999 158.6 50.1999C158.5 50.0999 158.4 49.9999 158.2 49.9999C158 49.9999 157.9 50.0999 157.8 50.1999C157.7 50.2999 157.7 50.4999 157.7 50.5999V52.1999H157.1V50.2999C157.1 50.0999 157.1 49.7999 157.1 49.4999H157.6V49.8999C157.8 49.5999 158 49.4999 158.4 49.4999C158.8 49.4999 159 49.6999 159.1 49.9999C159.2 49.7999 159.3 49.7999 159.4 49.6999C159.6 49.5999 159.7 49.4999 160 49.4999C160.3 49.4999 160.4 49.5999 160.6 49.6999C160.8 49.8999 160.9 50.1999 160.9 50.5999L161 52.2999ZM156.7 52.2999H156.2V51.8999C156 52.1999 155.7 52.3999 155.4 52.3999C155.1 52.3999 154.9 52.2999 154.8 52.1999C154.6 51.9999 154.5 51.6999 154.5 51.2999V49.6999H155.1V51.0999C155.1 51.5999 155.3 51.8999 155.6 51.8999C155.9 51.8999 156 51.7999 156.2 51.4999C156.2 51.3999 156.2 51.2999 156.2 51.2999V49.6999H156.8V51.5999C156.7 51.8999 156.7 52.0999 156.7 52.2999ZM153.8 48.8999C153.8 48.9999 153.8 49.0999 153.7 49.0999C153.6 49.1999 153.5 49.1999 153.4 49.1999C153.3 49.1999 153.2 49.1999 153.2 49.0999C153.1 48.9999 153.1 48.8999 153.1 48.8999C153.1 48.7999 153.1 48.6999 153.2 48.6999C153.3 48.5999 153.4 48.5999 153.4 48.5999C153.5 48.5999 153.6 48.5999 153.6 48.6999C153.8 48.7999 153.8 48.7999 153.8 48.8999ZM153.7 52.2999H153.1V49.6999H153.7V52.2999ZM152.4 52.2999H151.8V50.7999C151.8 50.2999 151.6 50.0999 151.3 50.0999C151.2 50.0999 151.1 50.0999 150.9 50.2999C150.8 50.3999 150.7 50.5999 150.7 50.6999V52.2999H150.1V50.6999C150.1 50.4999 150.1 50.2999 150 50.1999C149.9 50.0999 149.8 49.9999 149.6 49.9999C149.4 49.9999 149.3 50.0999 149.2 50.1999C149.1 50.2999 149 50.4999 149 50.5999V52.1999H148.4V50.2999C148.4 50.0999 148.4 49.7999 148.4 49.4999H148.9V49.8999C149.1 49.5999 149.3 49.4999 149.7 49.4999C150.1 49.4999 150.3 49.6999 150.4 49.9999C150.5 49.7999 150.6 49.7999 150.7 49.6999C150.9 49.5999 151 49.4999 151.2 49.4999C151.4 49.4999 151.6 49.5999 151.8 49.6999C152 49.8999 152.1 50.1999 152.1 50.5999L152.4 52.2999ZM148.1 50.0999C147.9 49.7999 147.6 49.6999 147.2 49.6999C146.8 49.6999 146.5 49.8999 146.3 50.0999C146.1 50.3999 146 50.6999 146 51.0999C146 51.4999 146.1 51.7999 146.4 52.0999C146.7 52.3999 147 52.4999 147.4 52.4999C147.7 52.4999 148 52.4999 148.3 52.2999L148.2 51.8999C148 51.9999 147.8 51.9999 147.5 51.9999C147.3 51.9999 147.1 51.8999 146.9 51.7999C146.7 51.6999 146.7 51.4999 146.6 51.1999H148.4C148.4 51.0999 148.4 50.9999 148.4 50.8999C148.3 50.5999 148.2 50.2999 148.1 50.0999ZM146.5 50.7999C146.5 50.5999 146.6 50.4999 146.7 50.3999C146.8 50.1999 147 50.1999 147.2 50.1999C147.4 50.1999 147.6 50.2999 147.7 50.3999C147.8 50.4999 147.8 50.6999 147.8 50.7999H146.5ZM145.7 50.1999C145.7 50.1999 145.6 50.1999 145.5 50.1999C145.3 50.1999 145.1 50.2999 145 50.3999C144.9 50.4999 144.8 50.6999 144.8 50.8999V52.2999H144.2V50.4999C144.2 50.1999 144.2 49.8999 144.2 49.6999H144.7V50.1999C144.7 49.9999 144.9 49.8999 145 49.7999C145.1 49.6999 145.3 49.5999 145.4 49.5999H145.5L145.7 50.1999ZM143.9 49.7999C143.9 50.0999 143.8 50.3999 143.6 50.5999C143.4 50.8999 143 50.9999 142.5 50.9999C142.3 50.9999 142.3 50.9999 142.2 50.9999V52.3999H141.7V48.7999C141.9 48.7999 142.2 48.6999 142.6 48.6999C143.1 48.6999 143.4 48.7999 143.6 48.9999C143.8 49.1999 143.9 49.3999 143.9 49.7999ZM143.3 49.7999C143.3 49.5999 143.2 49.3999 143.1 49.2999C143 49.1999 142.8 49.0999 142.5 49.0999C142.3 49.0999 142.2 49.0999 142.1 49.0999V50.3999C142.2 50.3999 142.3 50.3999 142.4 50.3999C142.7 50.3999 142.9 50.2999 143 50.1999C143.3 50.1999 143.3 49.9999 143.3 49.7999Z" fill="#0A0A0A"/>
<path fill-rule="evenodd" clip-rule="evenodd" d="M153.1 34.8C153.5 34.3 153.9 33.5 153.8 32.8C153.2 32.8 152.4 33.2 152 33.8C151.6 34.3 151.3 35 151.4 35.8C151.9 35.8 152.7 35.4 153.1 34.8Z" fill="#0A0A0A"/>
<path fill-rule="evenodd" clip-rule="evenodd" d="M156.4 41.9999C156.4 41.9999 156.1 42.8999 155.6 43.7999C155 44.5999 154.5 45.2999 153.6 45.3999C152.7 45.3999 152.4 44.8999 151.5 44.8999C150.6 44.8999 150.3 45.3999 149.5 45.3999C148.7 45.3999 148.1 44.5999 147.5 43.7999C146.4 42.1999 145.6 39.3999 146.7 37.4999C147.3 36.4999 148.3 35.8999 149.3 35.8999C150.1 35.8999 150.9 36.4999 151.4 36.4999C151.9 36.4999 152.8 35.7999 153.8 35.8999C154.2 35.8999 155.4 36.0999 156.1 37.1999C156.1 37.1999 154.7 37.9999 154.7 39.4999C154.7 41.3999 156.4 41.9999 156.4 41.9999Z" fill="#0A0A0A"/>
</svg>
