<svg width="190" height="90" viewBox="0 0 190 90" fill="none" xmlns="http://www.w3.org/2000/svg">
<path d="M45.2002 45.7C44.0002 42.6 44.8002 39.1 47.2002 36.9C52.0002 32.2 60.4002 35 61.0002 42.2C61.4002 46.3 60.5002 50.3 58.4002 53.9C53.9002 61.8 44.2002 65.8 35.7002 63.1C36.3002 63.1 43.3002 63.5 46.1002 57.5C48.0002 53.2 47.0002 50.4 45.2002 45.7Z" fill="white"/>
<path fill-rule="evenodd" clip-rule="evenodd" d="M48.8997 36.9999C49.2997 35.8999 50.8997 34.9999 52.8997 35.0999C56.7997 35.1999 60.3997 38.0999 60.6997 42.8999C60.6997 44.1999 60.5997 45.5999 60.4997 46.8999C59.9997 49.7999 58.8997 52.7999 58.3997 52.8999C58.0997 52.8999 59.1997 51.3999 58.5997 48.5999C58.2997 47.1999 57.6997 43.8999 51.3997 41.5999C49.4997 40.6999 48.3997 37.9999 48.8997 36.9999Z" fill="white"/>
<path d="M41.4998 33.2999C39.0998 39.2999 44.4997 43.5999 43.5997 47.8999C41.6997 42.2999 32.2998 43.2999 31.5998 37.3999C31.2998 35.1999 32.3997 33.2999 33.5997 31.6999C38.1997 25.4999 47.8997 24.4999 53.2997 28.2999C47.6997 27.3999 42.8997 29.7999 41.4998 33.2999Z" fill="white"/>
<path d="M37.7 45.9999C40.8 47.0999 42.9 49.9999 43 53.2999C43.4 59.8999 35.7 64.3999 30 60.1999C17.6 51.1999 20 34.0999 30.9 27.3999C30.5 27.7999 25.6 32.8999 28.3 38.8999C30.1 43.1999 32.9 44.2999 37.7 45.9999Z" fill="white"/>
<path fill-rule="evenodd" clip-rule="evenodd" d="M31.7998 36.6997C31.7998 41.1997 37.0998 42.1997 40.6998 44.3997C41.8998 44.9997 42.7998 45.9997 43.3998 47.1997C41.7998 41.6997 32.9998 42.4997 31.7998 36.6997Z" fill="white"/>
<path fill-rule="evenodd" clip-rule="evenodd" d="M40.4001 37.4001C39.3001 32.3001 41.2001 28.1001 45.5001 27.2001C45.8001 27.1001 46.0001 27.0001 45.8001 26.9001L45.7001 26.8001C46.6001 26.7001 47.4001 26.7001 48.3001 26.9001C49.1001 27.0001 49.9001 27.3001 50.6 27.7001C43.0001 28.0001 40.2001 31.6001 40.9001 38.2001L40.4001 37.4001Z" fill="white"/>
<path fill-rule="evenodd" clip-rule="evenodd" d="M28.6001 29.6997C26.6001 33.1997 26.9001 36.1997 27.8001 38.6997C28.8001 41.4997 31.1002 43.6997 34.9002 45.4997C27.8002 42.4997 22.9001 36.6997 28.6001 29.6997Z" fill="white"/>
<path fill-rule="evenodd" clip-rule="evenodd" d="M22.9003 39.8998C23.5003 35.1998 26.4003 31.4998 28.5003 29.7998C28.4003 29.9998 28.1003 30.2998 28.0003 30.4998C26.1003 33.1998 25.7003 35.7998 26.5003 37.9998C26.6003 38.1998 26.6003 38.3998 26.7003 38.5998C27.2003 39.7998 28.0003 40.7998 28.9003 41.6998C30.3003 43.0998 31.8003 44.3998 33.7003 45.3998C35.2003 46.1998 26.8003 45.8998 23.3003 42.4998C22.9003 41.5998 22.8003 40.7998 22.9003 39.8998Z" fill="white"/>
<path fill-rule="evenodd" clip-rule="evenodd" d="M22.2998 47.3999C23.3998 51.9999 25.7998 56.4999 29.4998 59.1999C32.7998 61.5999 36.2998 62.2999 39.6998 59.5999C40.9998 58.5999 41.7998 56.9999 42.2998 55.0999C41.0998 58.1999 38.7998 59.6999 37.0998 60.0999C29.0998 62.1999 23.2998 51.8999 22.2998 47.3999Z" fill="white"/>
<path fill-rule="evenodd" clip-rule="evenodd" d="M38 63.1998C41.1 62.7998 43.4 61.5998 45.6 59.1998L45 60.0998C44 61.1998 44.2 61.0998 43.3 61.6998C42.5 62.1998 42.9 62.3998 43.4 62.3998C49.3 61.9998 58 56.3998 60 49.2998C57.7 58.6998 47.5 63.4998 41.5 63.5998C40.3 63.5998 39.1 63.4998 38 63.1998Z" fill="white"/>
<path fill-rule="evenodd" clip-rule="evenodd" d="M33.8999 32.0999C35.8999 29.6999 37.8999 28.1999 40.1999 27.3999C42.3999 26.5999 45.4999 26.0999 48.2999 26.8999C43.9999 25.9999 39.7999 29.1999 38.0999 33.5999C35.9999 37.0999 30.9999 35.6999 33.8999 32.0999Z" fill="white"/>
<path fill-rule="evenodd" clip-rule="evenodd" d="M49 36.3997C53.8 33.4997 59.5 36.5997 60.4 42.1997C60.4 42.3997 60.5 42.5997 60.5 42.7997C60.5 43.0997 60.3 42.3997 60.3 42.2997C58.8 36.4997 52.8 34.8997 49 36.3997Z" fill="white"/>
<path fill-rule="evenodd" clip-rule="evenodd" d="M96.3996 29.3999C90.9996 29.3999 84.9996 34.2999 84.9996 44.7999C84.9996 54.6999 90.4996 60.4999 96.3996 60.4999C102.4 60.4999 107.9 54.6999 107.9 44.7999C107.9 34.1999 101.8 29.3999 96.3996 29.3999ZM96.3996 52.8999C93.6996 52.8999 93.2996 48.3999 93.2996 44.9999C93.2996 42.3999 93.5996 36.6999 96.3996 36.6999C99.1996 36.6999 99.4996 42.3999 99.4996 44.9999C99.4996 48.3999 99.0996 52.9999 96.3996 52.8999ZM109.1 37.1999H113.6V59.6999H121.6V37.1999H126.1V29.7999H109L109.1 37.1999ZM77.6996 29.8999H69.5996V59.7999H83.9996V52.6999H77.6996V29.8999ZM162.2 40.7999C160.4 39.2999 160.7 38.1999 161.1 37.4999C161.5 36.7999 162.2 36.5999 163 36.5999C165.6 36.4999 167.7 38.9999 167.7 38.9999V30.8999C165.8 29.9999 163.8 29.3999 162 29.3999C157 29.3999 152.7 32.9999 152.7 39.0999C152.7 45.9999 160.3 47.7999 160.3 50.6999C160.3 52.0999 159.5 53.0999 157.9 53.0999C155.8 52.9999 152.9 50.3999 152.9 50.3999V59.0999C154.8 59.9999 156.8 60.3999 158.8 60.3999C164.3 60.3999 168.3 55.5999 168.3 50.1999C168.4 44.3999 164.5 42.5999 162.2 40.7999ZM139 29.3999C133.6 29.3999 127.5 34.2999 127.5 44.7999C127.5 54.6999 133 60.4999 139 60.4999C144.9 60.4999 150.5 54.6999 150.5 44.7999C150.5 34.1999 144.4 29.3999 139 29.3999ZM139 52.8999C136.3 52.9999 135.9 48.3999 135.9 44.9999C135.9 42.3999 136.3 36.6999 139 36.6999C141.8 36.6999 142.2 42.3999 142.2 44.9999C142.2 48.3999 141.7 52.9999 139 52.8999Z" fill="white"/>
</svg>
