<svg width="190" height="90" viewBox="0 0 190 90" fill="none" xmlns="http://www.w3.org/2000/svg">
<g clip-path="url(#clip0_173_266)">
<path d="M33.3604 78.0199H36.1104V72.5599C36.1104 71.5899 36.1104 70.3899 36.6104 69.6799C37.1104 68.9199 37.9904 68.6699 38.4904 68.6699C40.8104 68.6699 40.8104 71.3999 40.8104 72.3499V78.0199H43.5604V71.8199C43.5604 70.9299 43.5603 69.0099 42.5103 67.7499C41.5603 66.5899 40.0504 66.1499 39.0604 66.1499C37.3204 66.1499 36.3703 67.0999 35.9203 67.5399V66.5399H33.3703V78.0199" fill="white"/>
<path fill-rule="evenodd" clip-rule="evenodd" d="M47.07 71.2999C47.59 69.1699 49.3 68.6098 50.32 68.6098C51.69 68.6098 53.11 69.4599 53.42 71.2999H47.07ZM56.06 73.5098C56.14 73.1398 56.23 72.6598 56.23 72.1298C56.23 69.2398 53.93 66.0898 50.29 66.0898C46.75 66.0898 44.25 69.0698 44.25 72.3198C44.25 75.6698 46.9 78.3998 50.31 78.3998C53 78.3998 55.19 76.4799 55.85 74.4099H52.95C52.43 75.3599 51.52 75.8798 50.3 75.8798C48.34 75.8798 47.26 74.2698 47.14 73.5198H56.06V73.5098Z" fill="white"/>
<path d="M59.7601 78.02H61.4501L63.6201 70.57H63.6601L65.8201 78.02H67.5101L71.7101 66.54H68.7701L66.6601 73.55H66.6201L64.7601 66.54H62.5701L60.6901 73.55H60.6501L58.5601 66.54H55.6201L59.7601 78.02Z" fill="white"/>
<path fill-rule="evenodd" clip-rule="evenodd" d="M79.6103 72.1297C79.6103 70.4497 80.9103 68.6797 83.0203 68.6797C84.7603 68.6797 86.3703 70.0197 86.3703 72.2597C86.3703 74.4897 84.8603 75.8797 83.0603 75.8797C81.4603 75.8697 79.6103 74.6697 79.6103 72.1297ZM77.0303 78.0197H79.5503V76.6297C80.2303 77.3997 81.2103 78.3897 83.4203 78.3897C87.6203 78.3897 89.1303 74.5197 89.1303 72.2297C89.1303 69.1897 86.8603 66.1497 83.3603 66.1497C82.0803 66.1497 80.7303 66.6297 79.7803 67.5797V62.7197H77.0303V78.0197Z" fill="white"/>
<path fill-rule="evenodd" clip-rule="evenodd" d="M99.3606 72.2501C99.3606 74.3801 97.9106 75.8701 96.0106 75.8701C94.0506 75.8701 92.6006 74.2801 92.6006 72.3301C92.6006 70.6201 93.7606 68.6701 96.0106 68.6701C97.6406 68.6701 99.3606 69.8701 99.3606 72.2501ZM101.971 66.5401H99.4506V67.9901H99.4006C99.3206 67.8201 97.9306 66.1401 95.6006 66.1401C92.4206 66.1401 89.8506 68.6801 89.8506 72.2001C89.8506 76.0201 92.4806 78.3801 95.4406 78.3801C96.8906 78.3801 98.5806 77.6101 99.4506 76.5801V78.0001H101.971V66.5401Z" fill="white"/>
<path d="M106.181 62.71H103.431V78.01H106.181V62.71Z" fill="white"/>
<path fill-rule="evenodd" clip-rule="evenodd" d="M116.521 72.2501C116.521 74.3801 115.071 75.8701 113.171 75.8701C111.201 75.8701 109.761 74.2801 109.761 72.3301C109.761 70.6201 110.921 68.6701 113.171 68.6701C114.801 68.6701 116.521 69.8701 116.521 72.2501ZM119.131 66.5401H116.611V67.9901H116.571C116.491 67.8201 115.101 66.1401 112.771 66.1401C109.581 66.1401 107.021 68.6801 107.021 72.2001C107.021 76.0201 109.651 78.3801 112.601 78.3801C114.051 78.3801 115.741 77.6101 116.611 76.5801V78.0001H119.131V66.5401Z" fill="white"/>
<path d="M120.591 78.0199H123.341V72.5599C123.341 71.5899 123.341 70.3899 123.841 69.6799C124.341 68.9199 125.231 68.6699 125.721 68.6699C128.041 68.6699 128.041 71.3999 128.041 72.3499V78.0199H130.791V71.8199C130.791 70.9299 130.791 69.0099 129.731 67.7499C128.781 66.5899 127.271 66.1499 126.281 66.1499C124.541 66.1499 123.591 67.0999 123.141 67.5399V66.5399H120.601V78.0199" fill="white"/>
<path d="M140.56 74.2699C139.84 75.4299 138.93 75.8599 138.02 75.8599C135.95 75.8599 134.57 74.2299 134.57 72.2599C134.57 69.8999 136.23 68.6599 137.9 68.6599C139.6 68.6599 140.24 69.7599 140.57 70.3299H143.67C142.49 66.7899 139.34 66.1299 137.9 66.1299C134.73 66.1299 131.82 68.6999 131.82 72.2099C131.82 76.0199 134.98 78.3699 137.92 78.3699C140.61 78.3699 142.74 76.8199 143.67 74.2499H140.56" fill="white"/>
<path fill-rule="evenodd" clip-rule="evenodd" d="M146.9 71.2999C147.42 69.1699 149.13 68.6098 150.15 68.6098C151.52 68.6098 152.94 69.4599 153.25 71.2999H146.9ZM155.89 73.5098C155.97 73.1398 156.05 72.6598 156.05 72.1298C156.05 69.2398 153.76 66.0898 150.12 66.0898C146.58 66.0898 144.08 69.0698 144.08 72.3198C144.08 75.6698 146.73 78.3998 150.14 78.3998C152.83 78.3998 155.02 76.4799 155.68 74.4099H152.79C152.27 75.3599 151.36 75.8798 150.14 75.8798C148.17 75.8798 147.1 74.2698 146.98 73.5198H155.89V73.5098Z" fill="white"/>
<path fill-rule="evenodd" clip-rule="evenodd" d="M96.8808 26.7499L101.151 19.3399L115.601 18.4099L116.101 17.5099L102.741 16.5799L105.871 11.1499H130.651C138.271 11.1499 143.911 13.8799 141.721 21.8899C141.061 24.3199 137.961 30.4299 128.881 32.9899C130.811 33.2199 135.611 35.3499 134.781 40.8599C133.311 50.6399 120.641 55.2999 113.601 55.2999L84.3408 55.3099L82.9008 49.6499L98.2308 48.5699L98.7508 47.6699L82.1308 46.6599L80.3408 39.9499L103.991 38.5699L104.501 37.6799L62.0008 35.0099L64.0408 31.4799L109.781 28.5099L110.301 27.6199L96.8808 26.7499ZM116.021 28.2199L120.251 28.1899C123.061 28.1799 126.001 26.8899 127.071 24.2799C128.061 21.8599 126.731 19.7999 124.971 19.7999H120.881L116.021 28.2199ZM111.171 36.6499L106.081 45.4699H110.931C113.181 45.4699 117.201 44.3499 118.441 41.1499C119.591 38.1799 117.481 36.6399 116.011 36.6399L111.171 36.6499ZM74.2608 50.2699L71.3308 55.3099L50.3008 55.3299L52.3408 51.7999L74.2608 50.2699ZM75.7408 11.1599L92.6408 11.1699L93.9208 15.9599L73.7108 14.6899L75.7408 11.1599ZM94.8808 19.7399L96.7208 26.7499L67.8508 24.8499L69.8908 21.3199L94.8808 19.7399ZM80.1708 39.9699L76.4908 46.3199L56.1408 45.1799L58.1808 41.6399L80.1708 39.9699Z" fill="white"/>
<path fill-rule="evenodd" clip-rule="evenodd" d="M159.191 76.6398C159.191 77.3998 158.631 77.9398 157.921 77.9398C157.201 77.9398 156.651 77.3898 156.651 76.6398C156.651 75.8998 157.201 75.3498 157.921 75.3498C158.631 75.3498 159.191 75.8998 159.191 76.6398ZM156.341 76.6398C156.341 77.5398 157.061 78.1898 157.921 78.1898C158.761 78.1898 159.491 77.5298 159.491 76.6398C159.491 75.7498 158.771 75.0898 157.921 75.0898C157.071 75.0898 156.341 75.7498 156.341 76.6398ZM157.591 75.9799H157.961C158.281 75.9799 158.361 76.0798 158.361 76.2498C158.361 76.4398 158.251 76.5398 157.911 76.5398H157.581V75.9799H157.591ZM157.591 76.7598H157.901L158.381 77.5398H158.681L158.171 76.7498C158.441 76.7198 158.641 76.5798 158.641 76.2598C158.641 75.9098 158.431 75.7498 158.011 75.7498H157.321V77.5398H157.601V76.7598H157.591Z" fill="white"/>
</g>
<defs>
<clipPath id="clip0_173_266">
<rect width="190" height="90" fill="white"/>
</clipPath>
</defs>
</svg>
