<svg width="190" height="90" viewBox="0 0 190 90" fill="none" xmlns="http://www.w3.org/2000/svg">
<g clip-path="url(#clip0_173_245)">
<path d="M12 53.1998H8.5V39.6998H4V36.7998H16.4V39.6998H12V53.1998Z" fill="white"/>
<path d="M32.2998 53.1998H28.7998V46.0998H22.2998V53.1998H18.7998V36.7998H22.2998V43.1998H28.7998V36.7998H32.2998V53.1998Z" fill="white"/>
<path d="M45.9 53.1998H36.5V36.7998H45.9V39.5998H39.9V43.1998H45.4V45.9998H40V50.1998H46V53.1998H45.9Z" fill="white"/>
<path d="M55.2998 36.7998H60.3998C62.6998 36.7998 64.3998 37.0998 65.4998 37.7998C66.4998 38.4998 67.0998 39.4998 67.0998 40.9998C67.0998 41.9998 66.8998 42.7998 66.3998 43.3998C65.8998 43.9998 65.2998 44.3998 64.5998 44.4998V44.5998C65.5998 44.7998 66.3998 45.2998 66.7998 45.8998C67.2998 46.4998 67.4998 47.3998 67.4998 48.3998C67.4998 49.8998 66.9998 51.0998 65.8998 51.8998C64.7998 52.6998 63.3998 53.1998 61.4998 53.1998H55.3998V36.7998H55.2998ZM58.7998 43.2998H60.7998C61.6998 43.2998 62.3998 43.1998 62.7998 42.8998C63.1998 42.5998 63.3998 42.0998 63.3998 41.4998C63.3998 40.8998 63.1998 40.3998 62.6998 40.1998C62.1998 39.8998 61.4998 39.7998 60.4998 39.7998H58.6998V43.2998H58.7998ZM58.7998 46.0998V50.3998H60.9998C61.9998 50.3998 62.6998 50.1998 63.0998 49.8998C63.5998 49.4998 63.7998 48.9998 63.7998 48.1998C63.7998 46.7998 62.7998 46.1998 60.8998 46.1998H58.7998V46.0998Z" fill="white"/>
<path d="M85.6 45C85.6 47.7 84.9 49.8 83.6 51.2C82.3 52.7 80.3 53.4 77.8 53.4C75.3 53.4 73.4 52.7 72 51.2C70.7 49.7 70 47.7 70 44.9C70 42.1 70.7 40.1 72 38.7C73.3 37.3 75.3 36.5 77.8 36.5C80.3 36.5 82.2 37.2 83.6 38.7C85 40.2 85.6 42.3 85.6 45ZM73.6 45C73.6 46.8 73.9 48.2 74.6 49.1C75.3 50 76.3 50.5 77.7 50.5C80.5 50.5 81.9 48.7 81.9 45C81.9 41.3 80.5 39.5 77.8 39.5C76.4 39.5 75.4 40 74.7 40.9C74 41.8 73.6 43.2 73.6 45Z" fill="white"/>
<path d="M102.5 44.8998C102.5 47.5998 101.7 49.6998 100.2 51.0998C98.7 52.4998 96.4 53.2998 93.6 53.2998H89V36.7998H94.1C96.8 36.7998 98.8 37.4998 100.3 38.8998C101.8 40.3998 102.5 42.2998 102.5 44.8998ZM98.9 44.8998C98.9 41.3998 97.3 39.5998 94.2 39.5998H92.4V50.2998H93.9C97.3 50.2998 98.9 48.4998 98.9 44.8998Z" fill="white"/>
<path d="M111 43.5999L114.4 36.8999H118.1L112.7 46.8999V53.2999H109.3V46.9999L103.9 36.8999H107.7L111 43.5999Z" fill="white"/>
<path d="M135.9 48.7002C135.9 50.2002 135.4 51.3002 134.3 52.2002C133.2 53.1002 131.8 53.5002 129.9 53.5002C128.2 53.5002 126.6 53.2002 125.3 52.5002V49.3002C126.4 49.8002 127.3 50.1002 128.1 50.3002C128.9 50.5002 129.6 50.6002 130.2 50.6002C131 50.6002 131.5 50.5002 132 50.2002C132.4 49.9002 132.6 49.5002 132.6 48.9002C132.6 48.6002 132.5 48.3002 132.3 48.0002C132.1 47.8002 131.9 47.5002 131.5 47.3002C131.2 47.1002 130.4 46.7002 129.4 46.2002C128.4 45.7002 127.6 45.3002 127.1 44.8002C126.6 44.4002 126.2 43.9002 125.9 43.3002C125.6 42.7002 125.5 42.1002 125.5 41.3002C125.5 39.9002 126 38.7002 127 37.9002C128 37.1002 129.3 36.7002 131.1 36.7002C132 36.7002 132.8 36.8002 133.5 37.0002C134.3 37.2002 135.1 37.5002 135.9 37.9002L134.8 40.6002C133.9 40.2002 133.2 40.0002 132.6 39.8002C132 39.7002 131.5 39.6002 130.9 39.6002C130.2 39.6002 129.7 39.8002 129.4 40.1002C129 40.4002 128.9 40.8002 128.9 41.3002C128.9 41.6002 129 41.9002 129.1 42.1002C129.2 42.3002 129.5 42.5002 129.8 42.8002C130.1 43.0002 130.8 43.4002 132 43.9002C133.5 44.6002 134.6 45.4002 135.1 46.1002C135.6 46.7002 135.9 47.6002 135.9 48.7002Z" fill="white"/>
<path d="M152.3 53.1998H148.8V46.0998H142.3V53.1998H138.8V36.7998H142.3V43.1998H148.8V36.7998H152.3V53.1998Z" fill="white"/>
<path d="M171.3 45C171.3 47.7 170.6 49.8 169.3 51.2C168 52.7 166 53.4 163.5 53.4C161 53.4 159.1 52.7 157.7 51.2C156.4 49.7 155.7 47.7 155.7 44.9C155.7 42.1 156.4 40.1 157.7 38.7C159 37.3 161 36.5 163.5 36.5C166 36.5 167.9 37.2 169.3 38.7C170.6 40.2 171.3 42.3 171.3 45ZM159.3 45C159.3 46.8 159.6 48.2 160.3 49.1C161 50 162 50.5 163.4 50.5C166.2 50.5 167.6 48.7 167.6 45C167.6 41.3 166.2 39.5 163.5 39.5C162.1 39.5 161.1 40 160.4 40.9C159.7 41.8 159.3 43.2 159.3 45Z" fill="white"/>
<path d="M186 41.8998C186 43.6998 185.4 44.9998 184.3 45.8998C183.2 46.7998 181.6 47.2998 179.6 47.2998H178.1V53.0998H174.6V36.7998H179.8C181.8 36.7998 183.3 37.1998 184.3 38.0998C185.4 38.9998 186 40.1998 186 41.8998ZM178.1 44.4998H179.2C180.3 44.4998 181.1 44.2998 181.6 43.8998C182.1 43.4998 182.4 42.8998 182.4 42.0998C182.4 41.2998 182.2 40.6998 181.7 40.2998C181.3 39.8998 180.6 39.6998 179.6 39.6998H178V44.4998H178.1Z" fill="white"/>
</g>
<defs>
<clipPath id="clip0_173_245">
<rect width="190" height="90" fill="white"/>
</clipPath>
</defs>
</svg>
