<svg width="190" height="90" viewBox="0 0 190 90" fill="none" xmlns="http://www.w3.org/2000/svg">
<path d="M67.2004 54.2001C67.2004 54.2001 67.1004 54.3001 66.8004 54.4001C66.3004 54.6001 65.3004 54.7001 64.7004 54.9001C64.2004 55.0001 63.7004 55.2001 63.1004 55.4001C61.5004 56.1001 60.7004 57.1001 60.3004 59.1001C60.1004 60.3001 60.2004 61.2001 60.7004 61.9001C61.1004 62.4001 61.6004 62.6001 62.3004 62.6001C65.1004 62.6001 66.0004 59.9001 66.4004 57.9001L67.2004 54.2001ZM67.2004 41.1001C71.0004 41.1001 73.4004 41.8001 74.5004 43.2001C75.1004 44.0001 75.5004 45.0001 75.5004 46.3001C75.5004 47.0001 75.4004 47.9001 75.2004 48.8001L72.6004 61.5001C72.2004 63.3001 72.0004 64.6001 72.0004 65.7001C72.0004 66.1001 72.0004 66.4001 72.1004 66.7001C71.0004 66.7001 65.7004 66.7001 64.9004 66.7001C64.9004 66.6001 64.9004 66.5001 64.9004 66.5001C64.9004 66.0001 64.9004 65.4001 65.0004 64.8001L65.1004 63.8001H64.7004L64.6004 64.0001C63.3004 66.1001 60.4004 67.4001 57.9004 67.4001C55.8004 67.4001 54.3004 66.9001 53.5004 65.8001C52.6004 64.6001 52.3004 62.8001 52.8004 60.4001C53.8004 55.7001 55.9004 53.7001 61.3004 52.5001L64.9004 51.7001C67.0004 51.2001 68.1004 50.3001 68.4004 48.5001C68.6004 47.5001 68.5004 46.7001 68.1004 46.2001C67.7004 45.7001 67.1004 45.5001 66.2004 45.5001C64.3004 45.5001 63.3004 46.5001 62.6004 49.0001C61.9004 49.0001 57.2004 49.0001 56.2004 49.0001C57.9004 42.1001 63.8004 41.1001 67.2004 41.1001Z" fill="white"/>
<path d="M99.8003 53.9002C99.0003 57.6002 99.1003 59.0002 99.8003 59.9002C100.2 60.4002 100.7 60.6002 101.5 60.6002C103.6 60.6002 104.7 59.3002 105.7 54.1002C106.5 50.4002 106.6 48.0002 105.8 47.1002C105.4 46.7002 104.9 46.4002 104.2 46.4002C102.1 46.5002 100.9 48.7002 99.8003 53.9002ZM92.9003 64.5002C91.4003 62.6002 91.1003 59.7002 92.1003 54.5002C94.4003 43.2002 98.7003 41.2002 102.4 41.2002C104.2 41.2002 106.9 41.9002 107.2 45.0002V45.5002H107.7C107.7 45.5002 108.3 42.6002 108.4 41.9002C109.1 41.9002 114.3 41.9002 115.4 41.9002C115.1 43.1002 110.2 66.8002 110.2 66.8002C109 72.7002 105.2 75.7002 98.2003 75.7002C91.7003 75.7002 90.7003 71.9002 90.6003 70.7002C90.5003 70.3002 90.7003 68.9002 90.7003 68.9002C91.4003 68.9002 96.5003 68.9002 97.5003 68.9002C97.5003 69.5002 97.5003 70.4002 97.7003 70.6002C98.0003 70.9002 98.2003 71.4002 99.3003 71.4002C100.7 71.4002 102.1 71.0002 102.8 67.8002L103.9 62.2002H103.3L103.1 62.5002C101.7 64.9002 99.1003 66.1002 96.4003 66.1002C95.0003 66.0002 93.7003 65.5002 92.9003 64.5002Z" fill="white"/>
<path d="M126.7 41.8003C126.4 43.0003 121.7 65.9003 121.5 66.7003C120.8 66.7003 115 66.7003 114 66.7003C114.2 65.5003 119 42.6003 119.1 41.8003C119.9 41.8003 125.7 41.8003 126.7 41.8003Z" fill="white"/>
<path d="M140.6 33.5C140.3 34.7 133.9 65.9 133.7 66.7C133 66.7 127.2 66.7 126.2 66.7C126.4 65.5 132.9 34.3 133.1 33.5C133.8 33.5 139.5 33.5 140.6 33.5Z" fill="white"/>
<path d="M152.7 33.5C152.4 34.7 146 65.9 145.8 66.7C145.1 66.7 139.3 66.7 138.3 66.7C138.5 65.5 145 34.3 145.2 33.5C145.9 33.5 151.6 33.5 152.7 33.5Z" fill="white"/>
<path d="M94.0004 41.1001C91.5004 41.1001 88.6004 42.8001 87.1004 45.6001L87.0004 45.9001H86.4004C86.4004 45.9001 87.1004 42.7001 87.3004 41.8001C87.2004 41.8001 86.9004 41.8001 86.7004 41.8001C85.9004 41.8001 80.6004 41.8001 79.5004 41.8001C79.5004 42.1001 79.6004 42.4001 79.6004 42.8001C79.6004 43.6001 79.5004 44.5001 79.3004 45.6001C77.9004 52.4001 75.1004 65.8001 74.9004 66.7001C76.0004 66.7001 81.7004 66.7001 82.5004 66.7001C83.0004 64.4001 85.3004 53.0001 85.3004 53.0001C86.0004 49.6001 88.0004 48.0001 91.6004 48.0001C92.2004 48.0001 92.8004 48.0001 93.3004 48.1001C93.5004 47.3001 94.5004 42.2001 94.7004 41.2001C94.3004 41.1001 94.0004 41.1001 94.0004 41.1001Z" fill="white"/>
<path d="M31.5003 65.4003C29.6003 63.1003 29.5003 58.8003 31.2003 50.7003C33.9003 37.7003 37.8003 33.3003 46.6003 33.3003C50.1003 33.3003 52.6003 34.1003 54.0003 35.8003C54.9003 36.9003 55.3003 38.3003 55.3003 40.2003C55.3003 41.2003 55.2003 42.3003 54.9003 43.5003C54.9003 43.5003 54.7003 44.6003 54.5003 45.2003C53.8003 45.2003 47.1003 45.2003 47.1003 45.2003C47.1003 45.2003 47.7003 41.7003 47.6003 40.9003C47.6003 40.0003 47.6003 39.5003 47.2003 39.1003C46.8003 38.6003 46.3003 38.3003 45.5003 38.3003C42.2003 38.3003 41.1003 41.4003 39.3003 50.5003C37.9003 57.5003 37.3003 60.7003 38.4003 62.1003C38.8003 62.6003 39.5003 62.9003 40.4003 62.9003C43.0003 62.9003 44.0003 60.7003 45.3003 54.5003C46.0003 54.5003 51.7003 54.5003 52.8003 54.5003C52.7003 55.2003 52.4003 56.4003 52.4003 56.4003C50.8003 64.0003 46.4003 67.9003 39.1003 67.9003C35.3003 67.8003 32.8003 67.1003 31.5003 65.4003Z" fill="white"/>
<path d="M154.3 33.5H156.6L156.5 33.8H155.5L154.9 37.1H154.5L155.2 33.8H154.2" fill="white"/>
<path d="M159.3 33.5H160L159.3 37.1H158.9L159.5 34.1C159.5 33.9 159.6 33.8 159.6 33.6C159.5 33.8 159.4 33.9 159.4 34.1L158 37H157.5L157.4 34C157.4 33.9 157.4 33.8 157.4 33.6C157.4 33.8 157.3 33.9 157.3 34.1L156.7 37.1H156.3L157 33.5H157.7L157.8 36.3C157.8 36.5 157.8 36.6 157.8 36.8C157.9 36.6 157.9 36.4 158 36.3" fill="white"/>
<path d="M127.4 38.9001C128 25.2001 111.5 14.9001 96.0998 18.1001C80.6998 21.3001 73.2998 34.7001 71.2998 38.8001H73.7998C77.1998 33.1001 80.5998 28.7001 86.3998 27.1001C90.0998 26.1001 92.9998 26.3001 100.1 30.3001C103.4 32.1001 110.8 37.7001 118.8 38.8001C122.4 39.2001 127.4 38.9001 127.4 38.9001Z" fill="white"/>
</svg>
