<svg width="190" height="90" viewBox="0 0 190 90" fill="none" xmlns="http://www.w3.org/2000/svg">
<path fill-rule="evenodd" clip-rule="evenodd" d="M49.8002 61.0001V29.3001H59.1002V42.7001C61.8002 41.9001 63.3002 40.6001 63.3002 38.5001C63.3002 37.7001 63.1002 37.1001 62.9002 36.5001C62.6002 35.9001 62.1002 35.2001 61.2002 34.7001L68.3002 29.2001C69.7002 30.0001 70.8002 31.1001 71.4002 32.2001C72.1002 33.3001 72.5002 34.8001 72.5002 36.4001C72.5002 37.9001 71.9002 39.1001 70.8002 40.2001C69.8002 41.4001 68.4002 42.7001 66.5002 43.5001C69.0002 44.3001 70.9002 45.4001 72.3002 47.4001C73.5002 49.2001 74.1002 51.2001 74.1002 53.6001V61.1001H64.8002V53.6001C64.8002 51.8001 64.4002 50.3001 63.5002 49.1001C62.5002 47.7001 60.9002 46.5001 58.9002 46.0001V61.1001L49.8002 61.0001ZM35.5002 40.6001H44.8002V61.0001H35.5002V40.6001ZM20.9002 35.5001H9.1002V29.2001H28.8002L30.5002 36.3001C23.5002 40.1001 19.6002 46.3001 18.7002 53.9001H30.5002V61.0001H8.2002V58.1001C8.2002 48.5001 13.4002 40.9001 20.9002 35.5001ZM85.0002 34.6001V43.9001C85.0002 46.2001 85.3002 48.5001 85.8002 50.0001C86.6002 52.0001 87.8002 52.8001 90.0002 53.6001V38.9001L85.0002 34.6001ZM77.5002 47.2001V36.4001L89.3002 29.3001L98.9002 34.8001V55.7001L90.5002 61.2001C86.7002 59.7001 83.4002 58.4001 81.1002 56.0001C78.6002 53.3001 77.5002 50.4001 77.5002 47.2001ZM40.2002 38.0001C43.8002 38.0001 46.5002 35.7001 46.5002 33.4001C46.5002 31.0001 43.8002 29.1001 40.2002 29.1001C36.6002 29.1001 33.9002 30.9001 33.9002 33.4001C33.8002 35.8001 36.6002 38.0001 40.2002 38.0001Z" fill="#D9D9D9"/>
<path d="M121.8 48C121.8 50.9 121.1 53.1 119.6 54.6C118.1 56.1 116 56.9 113.2 56.9H108.6V39.5H113.7C116.3 39.5 118.3 40.2 119.7 41.7C121 43.2 121.8 45.3 121.8 48ZM119.5 48.1C119.5 45.9 119 44.2 117.9 43.1C116.9 42 115.3 41.4 113.2 41.4H110.5V55H112.8C117.3 55 119.5 52.7 119.5 48.1Z" fill="#D9D9D9"/>
<path d="M134.699 56.9H125.399V39.5H134.699V41.4H127.499V46.8H134.299V48.7H127.499V55H134.699V56.9Z" fill="#D9D9D9"/>
<path d="M140.499 49.7V56.9H138.399V39.5H142.999C145.099 39.5 146.599 39.9 147.599 40.7C148.599 41.5 149.099 42.8 149.099 44.4C149.099 46.7 147.999 48.3 145.799 49.1L150.399 56.9H147.999L143.999 49.7H140.499ZM140.499 47.9H142.999C144.399 47.9 145.299 47.6 145.999 47.1C146.599 46.5 146.899 45.7 146.899 44.6C146.899 43.5 146.599 42.7 145.999 42.2C145.399 41.7 144.399 41.4 142.899 41.4H140.499V47.9Z" fill="#D9D9D9"/>
<path d="M160.3 56.9L154.8 41.6H154.7C154.8 42.9 154.9 44.4 154.9 46.3V56.9H153V39.5H156.1L161.2 53.8H161.3L166.5 39.5H169.6V56.9H167.5V46.2C167.5 45 167.6 43.5 167.7 41.7H167.6L162 56.9H160.3Z" fill="#D9D9D9"/>
<path d="M188.599 48.1998C188.599 50.9998 187.899 53.1998 186.599 54.7998C185.299 56.3998 183.399 57.1998 180.899 57.1998C178.399 57.1998 176.599 56.3998 175.199 54.7998C173.899 53.1998 173.199 50.9998 173.199 48.1998C173.199 45.3998 173.899 43.1998 175.199 41.5998C176.499 39.9998 178.399 39.2998 180.899 39.2998C183.299 39.2998 185.199 40.0998 186.499 41.6998C187.899 43.1998 188.599 45.3998 188.599 48.1998ZM175.399 48.1998C175.399 50.4998 175.899 52.2998 176.799 53.4998C177.699 54.6998 179.099 55.2998 180.899 55.2998C182.699 55.2998 183.999 54.6998 184.999 53.4998C185.899 52.2998 186.399 50.4998 186.399 48.1998C186.399 45.8998 185.899 44.0998 184.999 42.8998C184.099 41.6998 182.699 41.0998 180.899 41.0998C179.099 41.0998 177.699 41.6998 176.799 42.8998C175.899 44.0998 175.399 45.8998 175.399 48.1998Z" fill="#D9D9D9"/>
</svg>
